HIERARCHY
ROOT Hips
{
	OFFSET 0.000000 0.000000 0.000000
	CHANNELS 6 Xposition Yposition Zposition Zrotation Yrotation Xrotation 
	JOINT LowerBack
	{
		OFFSET 0.000000 0.000000 0.000000
		CHANNELS 3 Zrotation Yrotation Xrotation
		JOINT Spine
		{
			OFFSET 0.028270 2.035590 -0.193380
			CHANNELS 3 Zrotation Yrotation Xrotation
			JOINT Spine1
			{
				OFFSET 0.056720 2.048850 -0.042750
				CHANNELS 3 Zrotation Yrotation Xrotation
				JOINT Neck
				{
					OFFSET 0.000000 0.000000 0.000000
					CHANNELS 3 Zrotation Yrotation Xrotation
					JOINT Neck1
					{
						OFFSET -0.054170 1.746240 0.172020
						CHANNELS 3 Zrotation Yrotation Xrotation
						JOINT Head
						{
							OFFSET 0.104070 1.761360 -0.123970
							CHANNELS 3 Zrotation Yrotation Xrotation
							End Site
							{
								OFFSET 0.000000 0.000000 0.000000
							}
						}
					}
				}
				JOINT LeftShoulder
				{
					OFFSET 0.000000 0.000000 0.000000
					CHANNELS 3 Zrotation Yrotation Xrotation
					JOINT LeftArm
					{
						OFFSET 3.362410 1.200890 -0.311210
						CHANNELS 3 Zrotation Yrotation Xrotation
						JOINT LeftForeArm
						{
							OFFSET 4.983000 -0.000000 -0.000000
							CHANNELS 3 Zrotation Yrotation Xrotation
							JOINT LeftHand
							{
								OFFSET 3.483560 -0.000000 -0.000000
								CHANNELS 3 Zrotation Yrotation Xrotation
								JOINT LeftFingerBase
								{
									OFFSET 0.000000 0.000000 0.000000
									CHANNELS 3 Zrotation Yrotation Xrotation
									JOINT LeftHandIndex1
									{
										OFFSET 0.715260 -0.000000 -0.000000
										CHANNELS 3 Zrotation Yrotation Xrotation
										End Site
										{
											OFFSET 0.000000 0.000000 0.000000
										}
									}
								}
								JOINT LThumb
								{
									OFFSET 0.000000 0.000000 0.000000
									CHANNELS 3 Zrotation Yrotation Xrotation
									End Site
									{
										OFFSET 0.000000 0.000000 0.000000
									}
								}
							}
						}
					}
				}
				JOINT RightShoulder
				{
					OFFSET 0.000000 0.000000 0.000000
					CHANNELS 3 Zrotation Yrotation Xrotation
					JOINT RightArm
					{
						OFFSET -3.136600 1.374050 -0.404650
						CHANNELS 3 Zrotation Yrotation Xrotation
						JOINT RightForeArm
						{
							OFFSET -5.241900 -0.000000 -0.000000
							CHANNELS 3 Zrotation Yrotation Xrotation
							JOINT RightHand
							{
								OFFSET -3.444170 -0.000000 -0.000000
								CHANNELS 3 Zrotation Yrotation Xrotation
								JOINT RightFingerBase
								{
									OFFSET 0.000000 0.000000 0.000000
									CHANNELS 3 Zrotation Yrotation Xrotation
									JOINT RightHandIndex1
									{
										OFFSET -0.622530 -0.000000 -0.000000
										CHANNELS 3 Zrotation Yrotation Xrotation
										End Site
										{
											OFFSET 0.000000 0.000000 0.000000
										}
									}
								}
								JOINT RThumb
								{
									OFFSET 0.000000 0.000000 0.000000
									CHANNELS 3 Zrotation Yrotation Xrotation
									End Site
									{
										OFFSET 0.000000 0.000000 0.000000
									}
								}
							}
						}
					}
				}
			}
		}
	}
}
}
MOTION
Frames: 9
Frame Time: 0.008333
-22.005460 16.759351 -2.220450 -102.281685 88.813411 -85.615191 5.762265 -3.680612 -3.611430 0.403117 -4.318662 -3.692606 -7.677841 -4.424212 0.474437 10.005642 -7.905438 -7.596186 -4.396906 -0.334850 -0.008036 0.000000 0.000000 0.000000 -8.560715 2.389489 2.104879 -65.091980 -14.454146 21.700610 -2.838223 -39.895687 -0.010381 3.330668 2.225903 0.063394 -0.102117 0.148094 0.000000 0.000000 0.000000 0.000000 0.000000 0.000000 0.000000 19.555915 -7.246597 1.677090 65.629879 -5.289649 -12.261490 4.110638 12.875808 0.009322 0.115069 4.616146 0.000546 0.108453 -0.051854 -0.000000 0.000000 0.000000 0.000000 0.000000 0.000000 0.000000 
-21.853668 16.787012 -2.192208 -98.839041 88.568082 -82.239132 6.116810 -3.645201 -3.661108 0.481963 -4.314690 -3.708346 -7.638278 -4.422259 0.461945 9.922889 -7.732832 -7.583391 -4.396216 -0.335097 -0.003648 0.000000 0.000000 0.000000 -8.618117 2.503711 2.100105 -65.387556 -14.076065 21.088719 -2.835825 -39.159906 -0.010652 3.520546 2.195336 0.065855 -0.099941 0.145525 0.000000 0.000000 0.000000 0.000000 0.000000 0.000000 0.000000 19.425740 -7.065267 1.668946 65.492468 -5.043608 -12.341987 4.131266 12.514357 0.009251 0.036701 4.570086 -0.002655 0.109578 -0.051920 -0.000000 0.000000 0.000000 0.000000 0.000000 0.000000 0.000000 
-21.701501 16.816192 -2.161863 -96.453410 88.341964 -79.933045 6.427557 -3.613186 -3.704844 0.550178 -4.310317 -3.721661 -7.599908 -4.419379 0.453299 9.851991 -7.564911 -7.567029 -4.396196 -0.335430 0.001808 0.000000 0.000000 0.000000 -8.641170 2.616342 2.093974 -65.678289 -13.674525 20.469819 -2.831789 -38.397862 -0.010933 3.720744 2.180147 0.068915 -0.097646 0.142533 0.000000 0.000000 0.000000 0.000000 0.000000 0.000000 0.000000 19.313088 -6.891664 1.656411 65.376361 -4.763730 -12.369237 4.149607 12.163094 0.009168 -0.035803 4.521626 -0.005558 0.110567 -0.051885 -0.000000 0.000000 0.000000 0.000000 0.000000 0.000000 0.000000 
-21.549596 16.846532 -2.129067 -94.891845 88.147621 -78.457783 6.680818 -3.585515 -3.749395 0.605168 -4.305873 -3.733341 -7.564034 -4.415966 0.449939 9.796831 -7.408606 -7.547484 -4.397476 -0.335909 0.008328 0.000000 0.000000 0.000000 -8.626739 2.722520 2.086153 -65.956491 -13.251574 19.858444 -2.826806 -37.616645 -0.011195 3.923232 2.181033 0.072573 -0.095265 0.139116 0.000000 0.000000 0.000000 0.000000 0.000000 0.000000 0.000000 19.226568 -6.733417 1.638964 65.282426 -4.451811 -12.340056 4.165051 11.830173 0.009075 -0.102467 4.472975 -0.008159 0.111395 -0.051740 -0.000000 0.000000 0.000000 0.000000 0.000000 0.000000 0.000000 
-21.398230 16.877699 -2.094672 -94.021377 87.969012 -77.683293 6.900010 -3.560034 -3.790631 0.651688 -4.300672 -3.743690 -7.530961 -4.411450 0.449158 9.749964 -7.250399 -7.520516 -4.400182 -0.336563 0.016992 0.000000 0.000000 0.000000 -8.590279 2.823701 2.079341 -66.214303 -12.821236 19.275821 -2.821834 -36.820657 -0.011429 4.119634 2.200624 0.076931 -0.092868 0.135403 0.000000 0.000000 0.000000 0.000000 0.000000 0.000000 0.000000 19.155524 -6.574948 1.617504 65.216066 -4.124687 -12.295974 4.178148 11.529313 0.008985 -0.153237 4.425050 -0.010160 0.112018 -0.051571 -0.000000 0.000000 0.000000 0.000000 0.000000 0.000000 0.000000 
-21.247566 16.909306 -2.058168 -93.689521 87.826059 -77.445602 7.061112 -3.537197 -3.838247 0.685150 -4.294020 -3.752962 -7.501253 -4.405073 0.455473 9.718372 -7.118445 -7.492850 -4.404039 -0.337340 0.026089 0.000000 0.000000 0.000000 -8.522203 2.911797 2.070414 -66.449043 -12.380313 18.724306 -2.817117 -36.020241 -0.011598 4.299774 2.236289 0.081590 -0.090436 0.131363 0.000000 0.000000 0.000000 0.000000 0.000000 0.000000 0.000000 19.112168 -6.445960 1.592079 65.170760 -3.757027 -12.178323 4.187944 11.255642 0.008897 -0.201851 4.383000 -0.011959 0.112498 -0.051325 -0.000000 0.000000 0.000000 0.000000 0.000000 0.000000 0.000000 
-21.098357 16.941036 -2.020597 -93.823166 87.699758 -77.673193 7.191456 -3.513497 -3.888565 0.710874 -4.284245 -3.762553 -7.475131 -4.395399 0.462197 9.692464 -6.981330 -7.455926 -4.409653 -0.338341 0.037825 0.000000 0.000000 0.000000 -8.439056 2.987626 2.063578 -66.655091 -11.935916 18.220031 -2.813418 -35.223354 -0.011697 4.455882 2.288996 0.086648 -0.088036 0.127166 0.000000 0.000000 0.000000 0.000000 0.000000 0.000000 0.000000 19.081923 -6.310837 1.564479 65.155732 -3.386254 -12.065728 4.195225 11.029260 0.008820 -0.229705 4.345983 -0.012859 0.112737 -0.051144 -0.000000 0.000000 0.000000 0.000000 0.000000 0.000000 0.000000 
-20.950583 16.972540 -1.981880 -94.281067 87.599744 -78.218340 7.279316 -3.488654 -3.943261 0.726917 -4.270309 -3.770599 -7.452020 -4.381171 0.476627 9.676802 -6.877513 -7.422426 -4.415469 -0.339343 0.048718 0.000000 0.000000 0.000000 -8.338698 3.056243 2.054888 -66.832919 -11.501909 17.769445 -2.811387 -34.434903 -0.011706 4.580305 2.353655 0.091710 -0.085720 0.122822 0.000000 0.000000 0.000000 0.000000 0.000000 0.000000 0.000000 19.071263 -6.208925 1.534948 65.159028 -2.965067 -11.864979 4.199267 10.836322 0.008757 -0.258965 4.319470 -0.013957 0.112873 -0.050958 -0.000000 0.000000 0.000000 0.000000 0.000000 0.000000 0.000000 
-20.804711 17.003532 -1.942829 -94.972585 87.514013 -78.990505 7.342186 -3.459739 -4.000201 0.736570 -4.250489 -3.779119 -7.432257 -4.360986 0.490079 9.664007 -6.769707 -7.382038 -4.422492 -0.340499 0.061469 0.000000 0.000000 0.000000 -8.231469 3.112994 2.048716 -66.979313 -11.071806 17.375923 -2.811133 -33.668717 -0.011631 4.668118 2.429608 0.096674 -0.083513 0.118470 0.000000 0.000000 0.000000 0.000000 0.000000 0.000000 0.000000 19.068518 -6.098633 1.505746 65.190332 -2.537447 -11.660085 4.200653 10.696076 0.008714 -0.269848 4.302414 -0.014253 0.112787 -0.050915 -0.000000 0.000000 0.000000 0.000000 0.000000 0.000000 0.000000 
